<svg xmlns="http://www.w3.org/2000/svg" viewBox="0 0 48 48" width="64px" height="64px"><path fill="#fff" d="M4.868,43.303l2.694-9.835C5.9,30.59,5.026,27.324,5.027,23.979C5.032,13.514,13.548,5,24.014,5c5.079,0.002,9.845,1.979,13.43,5.566c3.584,3.588,5.558,8.356,5.556,13.428c-0.004,10.465-8.522,18.98-18.986,18.98c-3.191,0-6.316-0.8-9.146-2.32l-9.999,2.649L4.868,43.303z"/><path fill="#fff" d="M24.014,5c5.079,0.002,9.845,1.979,13.43,5.566c3.584,3.588,5.558,8.356,5.556,13.428c-0.004,10.465-8.522,18.98-18.986,18.98c-3.191,0-6.316-0.8-9.146-2.32l-9.999,2.649l2.694-9.835C5.9,30.59,5.026,27.324,5.027,23.979C5.032,13.514,13.548,5,24.014,5 M24.014,42.974c3.172,0,6.277-0.825,9.013-2.372l0.639-0.361l6.698,1.772l-1.791-6.549l-0.417-0.662C36.125,31.717,37.002,27.918,37.006,23.995c0.002-7.146-5.815-12.961-12.977-12.961c-3.469-0.001-6.735,1.351-9.189,3.805c-2.454,2.454-3.805,5.72-3.804,9.188c0.001,3.949,1.033,7.798,2.99,11.168l0.439,0.756l-1.902,6.937l7.091-1.87l0.686,0.407C21.344,42.455,22.678,42.974,24.014,42.974L24.014,42.974z"/><path fill="#25d366" d="M24.014,5c5.079,0.002,9.845,1.979,13.43,5.566c3.584,3.588,5.558,8.356,5.556,13.428c-0.004,10.465-8.522,18.98-18.986,18.98c-3.191,0-6.316-0.8-9.146-2.32l-9.999,2.649l2.694-9.835C5.9,30.59,5.026,27.324,5.027,23.979C5.032,13.514,13.548,5,24.014,5"/><path fill="#fff" d="M30.585,26.47c-0.359-0.18-2.123-1.048-2.452-1.168c-0.329-0.12-0.569-0.18-0.809,0.18c-0.239,0.359-0.928,1.168-1.138,1.407c-0.21,0.24-0.419,0.269-0.779,0.09c-0.359-0.18-1.517-0.559-2.891-1.784c-1.066-0.951-1.786-2.125-1.996-2.484c-0.21-0.359-0.022-0.553,0.157-0.732c0.161-0.161,0.359-0.419,0.539-0.629c0.18-0.21,0.239-0.359,0.359-0.599c0.12-0.24,0.06-0.449-0.03-0.629c-0.09-0.18-0.809-1.948-1.108-2.667c-0.292-0.702-0.59-0.607-0.809-0.618c-0.203-0.01-0.435-0.012-0.667-0.012c-0.232,0-0.609,0.087-0.928,0.435c-0.319,0.348-1.228,1.2-1.228,2.925c0,1.725,1.256,3.392,1.431,3.626c0.175,0.234,2.472,3.775,5.989,5.292c2.34,1.009,3.248,1.085,4.435,0.91c1.305-0.192,2.123-0.785,2.423-1.543c0.3-0.758,0.3-1.407,0.21-1.557C31.154,26.739,30.944,26.65,30.585,26.47z"/></svg>